<svg width="100" height="100" viewBox="-88 -88 190 190" xmlns="http://www.w3.org/2000/svg" fill="#EC4899">
  <g transform="translate(-40,-44) scale(0.62) rotate(-14)">
    <ellipse cx="0" cy="24" rx="36" ry="28"/>
    <ellipse cx="-33" cy="-20" rx="13" ry="17" transform="rotate(-18 -33 -20)"/>
    <ellipse cx="-12" cy="-36" rx="13" ry="17" transform="rotate(-6 -12 -36)"/>
    <ellipse cx="12" cy="-36" rx="13" ry="17" transform="rotate(6 12 -36)"/>
    <ellipse cx="33" cy="-20" rx="13" ry="17" transform="rotate(18 33 -20)"/>
  </g>
  <g transform="translate(32,36) scale(0.98) rotate(10)">
    <ellipse cx="0" cy="24" rx="36" ry="28"/>
    <ellipse cx="-33" cy="-20" rx="13" ry="17" transform="rotate(-18 -33 -20)"/>
    <ellipse cx="-12" cy="-36" rx="13" ry="17" transform="rotate(-6 -12 -36)"/>
    <ellipse cx="12" cy="-36" rx="13" ry="17" transform="rotate(6 12 -36)"/>
    <ellipse cx="33" cy="-20" rx="13" ry="17" transform="rotate(18 33 -20)"/>
  </g>
</svg>
